<svg xmlns="http://www.w3.org/2000/svg" viewBox="0 0 220 85"><defs><path id="logo" d="M65.08 12.98c-1.85 6.49-21.51 33.59-27.28 21.78 4.71-4.28 11.79-8.83 15.84-14.8 21.11-30.01-29.67-7.67-36.74 14.21C2.14 62.88 25.9 71.1 45 51.73c11.39 1.2-9.8 15.08-13.47 15.79-47.96 8.97-21.26-52.74 4.4-62.81 9.57-6.01 34.88-8.92 29.15 8.27zm18.15 42.07C77.97 60.83 67 74.54 59.47 65.45c-4.67 3.49-14.73 5.46-17.93-1.39-4.3-13.42 17.53-31.62 29.48-23.17 1.23-2.18 5.44-2.98 7.2-1.19-.42 6.45-8.34 13.87-10.34 20.05 5.85 2.02 8.38-10.06 14.24-7.62 1.22.55 2.21 1.71 1.11 2.92zM65.52 43.37C58.97 41.2 45.56 56 50 61.98c6.99 2.04 19.48-12.16 15.52-18.61zm51.37 11.68c-7.12 9.72-26.29 20.21-36.41 9.8-4.08 6.19-5.5 15.41-11.16 19.55-7.43 1.17-6.2-4.58-2.7-9.7 5.93-11.14 12.7-24.61 18.48-35.84 2.06-5.15 4.63-8.71 9.52-5.3 1.65 1.17-1.75 5.46-2.03 6.73 16.85-8.19 17.79 13.16 7.81 21.58 5.61-1.57 8.81-7.59 13.36-10.15 1.74-.17 4.75 1.38 3.13 3.33zm-16.06-6.39c.77-14.54-21.93 7.37-15.73 13.51 7.26 2.46 14.2-7.26 15.73-13.51zm40.48-14.94c-1.52 3.84-7.7 2.88-10.89 3.12-.77 2.75-22.96 31.06-10.28 24.75 4.9-2.39 7.54-7.51 11.99-9.85 5.65.24 3.49 3.82.27 6.58-4.78 6.03-19.64 16.53-24.58 6.19-.8-8.62 9.99-19.42 14.14-27.57-14.05 1.13-4.73-7.48 3.74-5.74 1.18-1.54 2.8-5.04 4.95-5.35 3.97-1.04 6.72 2.01 3.52 5.25 2.41.41 8.96-1.62 7.14 2.62zm29.03 21.33c-5.26 5.79-16.23 19.49-23.76 10.4-4.67 3.49-14.73 5.46-17.93-1.39-4.3-13.42 17.53-31.62 29.48-23.17 1.23-2.18 5.44-2.98 7.2-1.19-.41 6.45-8.33 13.87-10.33 20.05 5.85 2.02 8.38-10.06 14.24-7.62 1.22.55 2.21 1.71 1.1 2.92zm-17.7-11.68c-6.55-2.17-19.96 12.63-15.51 18.61 6.98 2.04 19.46-12.16 15.51-18.61zm35.96 11.68c-18.24 22.59-40.36 16.6-17.43-11.78 4.15-8.19 13.73-4.92 6.1 3.51-2.28 5.16-8.29 10.12-7.7 15.49 6.7.99 10.52-8.2 15.78-10.54 1.76-.17 4.92 1.32 3.25 3.32zm-1.98-22.87c-5.23 4.53-12.11 2.79-5.61-4.06 2.93-3.88 11.1.12 5.61 4.06zm32.23 22.87c-16.22 20.96-34.71 17.04-15.84-9.06-13.3 1.21-12.92 18.15-20.13 22.72-14.71 2.74 6.44-23.69 7.48-29.41 1.87-2.78 10-.8 6.6 3.17 5.18-5.63 16.32-5.54 13.91 3.81-1.73 4.99-6.37 10.21-8.58 15.05 5.11.12 8.94-7.94 13.31-9.6 1.78-.17 4.66 1.32 3.25 3.32z"/></defs></svg>
