<svg xmlns="http://www.w3.org/2000/svg" viewBox="0 0 377 91"><defs><path id="logo" d="M60.17 15.18c-3.77 7.6-8.62 15.88-12.35 23.98 17.81-.29 8.65 8.35-2.9 6C39.54 58.78 29.4 73.5 32.88 88.27c-30.71 12.88-2.37-32.24 2.79-43.41-8.62-.02-18.32 1.44-26.75 3.96-2.3-14.61 20.66-8.27 29.27-10.2 8.35-12.14 27.64-37.31-3-32.77-18.43-.94-31.76 14.92-8.65 11.75-5.09 7.47-9.99 11.88-18.96 6.47-27.55-21.76 65.45-37.87 52.59-8.89zm54.57 37.32c-5.29 11.55-37.89 39.48-36.9 11.36 1.15-5.44 12.84-14.52 7.04-18.61-2.63.32-5.42.26-7.84-.77-23.83 38.62-32.26 40.04-6.34-2.51-5.47-3.46.26-10.78 3.76-13.73 7.24-5.29 11.87 5.48 7.2 10.63 3.81 2 9.67-1.89 12.14 3.14 8.97 8.97-17.74 23.66-4.51 27.41 6.56 2.91 29.45-31.18 25.45-16.92zm30.4-.58C120.74 87.68 97 75.7 115.92 36.35c2.27-1.61 7.01-1.96 9.67-1.84-.18 1.53-1.42 4.44-2.15 6.58-2.15 6.61-15.18 33.2 1.24 24.65 4.13-.34 23.59-25.92 20.46-13.82zm-15.63-34.08c-3.63 5.21-11.5.72-7.68-4.64 4.5-7.68 12.81-2.36 7.68 4.64zm56.45 34.75c-21.14 32.99-68.74 27.68-40.66-11.89 5.91-9.76 30.42-13.18 21.81 3.39-4.82 7.67-14 11.5-21.11 16.34.12 9.02 10.5 10.45 17.08 6.53 4.62.26 26.69-25.92 22.88-14.37zm-36.74.34c25.78-16.6 1.1-22.91-2.79 1.79.86-.58 1.78-1.17 2.79-1.79zm87.01-.53c-15.66 25.85-45.2 36.7-29.32-5.95.99-10.55-10.24-1.43-13.05 2.8-5.73 5.62-5.79 14.21-8.11 21.22-1.12 2.18-8.29 5.59-9.67 3.09.47-1.92 1.36-4.87 2.1-7.4 5.2-8.88 1.69-35.76 17.46-29.54-1.06 2.29-1.71 5.16-2.69 7.64 4.97-8.09 22.52-16.72 23.58-1.55.01 8.1-5.1 16.3-5.8 24.46 4.68 10.43 29.92-30.67 25.5-14.77zm54.14-.77c-6.01 9.82-34.56 38.39-35.45 12.28-15.45 17.91-34.19 8.76-24.49-13.83 3.61-12.05 25.14-26.18 29.86-8.12 4.22-12.05 4.83-27.52 12.57-37.51 7-3.39 8.8 2.87 7.84 9.18 2.83 15.01-29.11 48.76-15.79 55.2 5.45 2.25 29.42-29.79 25.46-17.2zm-32.17-3.39c-2.81 1.53-2.35-1.47-2.52-3.63-5.72-26.25-35.34 30.34-10.47 21.51 6.69-4.22 12.72-9.98 13.37-18.08-.15.07-.28.14-.38.2zm72.67 4.35c-21.14 32.99-68.74 27.68-40.66-11.89 5.91-9.76 30.42-13.18 21.81 3.39-4.82 7.67-14 11.5-21.11 16.34.12 9.02 10.5 10.45 17.08 6.53 4.62.26 26.69-25.92 22.88-14.37zm-36.74.34c25.78-16.6 1.1-22.91-2.79 1.79.86-.58 1.79-1.17 2.79-1.79zm81.32-.43c-5.3 11.55-37.88 39.48-36.9 11.36 1.15-5.44 12.84-14.52 7.04-18.61-2.64.32-5.41.26-7.84-.77-23.83 38.62-32.26 40.04-6.34-2.51-5.47-3.46.26-10.78 3.76-13.73 7.24-5.29 11.87 5.48 7.2 10.63 3.82 2 9.67-1.88 12.14 3.14 8.97 8.98-17.74 23.65-4.52 27.41 6.57 2.91 29.46-31.18 25.46-16.92z"/></defs></svg>
